<?xml version="1.0" encoding="utf-8"?>
<!-- Svg Vector Icons : http://www.onlinewebfonts.com/icon -->
<!DOCTYPE svg PUBLIC "-//W3C//DTD SVG 1.1//EN" "http://www.w3.org/Graphics/SVG/1.1/DTD/svg11.dtd">
<svg version="1.1" xmlns="http://www.w3.org/2000/svg" xmlns:xlink="http://www.w3.org/1999/xlink" x="0px" y="0px" viewBox="0 0 256 256" enable-background="new 0 0 256 256" xml:space="preserve">
<metadata> Svg Vector Icons : http://www.onlinewebfonts.com/icon </metadata>
<g><g><path fill="#C9DDFF" d="M130.7,118.6c15-1.6,26.6-13.8,26.4-28.5c-0.3-15.6-13.8-28.2-30.2-27.9C110.5,62.4,97.4,75.4,97.7,91c0.2,14.7,12.3,26.5,27.4,27.7c-28.8,1.9-51.5,25-51,52.8c0.3,16,27.9,22.6,55,22.3c27.2-0.5,54.6-8,54.3-23.9C182.9,142,159.5,119.6,130.7,118.6z"/><path fill="#C9DDFF" d="M206.4,110.4c11.3-1,20.2-10.2,20-21.2c-0.2-11.6-10.2-20.9-22.4-20.7c-12.1,0.2-21.8,9.8-21.6,21.4c0.2,11.1,9.4,20,20.8,20.5c-13.8,0.7-26.1,7.8-33,19.4c-0.4,0.8-0.2,1.7,0.4,2.2c9.8,7.8,15.8,19.3,16.6,31.4c0,0.9,0.7,1.5,1.5,1.7c5.2,0.8,11,1.1,16.9,1c10.4-0.1,20-1.7,27.2-4.4c10.9-4,13.2-9.5,13.1-13.3C245.7,127.6,228.1,110.9,206.4,110.4z"/><path fill="#C9DDFF" d="M84.8,133c0.6-0.6,0.8-1.5,0.3-2.3c-7.3-11.3-19.9-18-33.7-18.3c11.4-1,20.3-10.2,20.1-21.2c-0.2-11.6-10.2-20.8-22.4-20.6c-12.1,0.2-21.9,9.8-21.7,21.4c0.2,11,9.3,19.9,20.7,20.5c-21.6,1.1-38.7,18.4-38.3,39.3c0.1,3.9,2.5,9.2,13.5,13c7.3,2.4,17,3.7,27.4,3.5c5.8,0,11.7-0.6,16.8-1.6c0.9-0.1,1.5-0.9,1.5-1.7C69.6,152.7,75.3,141.1,84.8,133z"/></g></g>
</svg>